<?xml version="1.0" encoding="UTF-8" standalone="no"?>
<!-- Created with Inkscape (http://www.inkscape.org/) -->

<svg
   width="64pt"
   height="64pt"
   viewBox="0 0 22.577778 22.577778"
   version="1.1"
   id="svg831"
   inkscape:version="1.1.2 (b8e25be833, 2022-02-05)"
   sodipodi:docname="Export - Unblash - 64px.svg"
   inkscape:export-filename="E:\Icon Design\TR Icon Design Project\Carlos - Icon Design Project\November\Asli Siap\Line\06 - Modern House Building.png"
   inkscape:export-xdpi="576"
   inkscape:export-ydpi="576"
   xmlns:inkscape="http://www.inkscape.org/namespaces/inkscape"
   xmlns:sodipodi="http://sodipodi.sourceforge.net/DTD/sodipodi-0.dtd"
   xmlns="http://www.w3.org/2000/svg"
   xmlns:svg="http://www.w3.org/2000/svg"
   xmlns:rdf="http://www.w3.org/1999/02/22-rdf-syntax-ns#"
   xmlns:cc="http://creativecommons.org/ns#"
   xmlns:dc="http://purl.org/dc/elements/1.1/">
  <defs
     id="defs825">
    <pattern
       id="EMFhbasepattern"
       patternUnits="userSpaceOnUse"
       width="6"
       height="6"
       x="0"
       y="0" />
    <pattern
       id="EMFhbasepattern-9"
       patternUnits="userSpaceOnUse"
       width="6"
       height="6"
       x="0"
       y="0" />
    <pattern
       id="EMFhbasepattern-0"
       patternUnits="userSpaceOnUse"
       width="6"
       height="6"
       x="0"
       y="0" />
    <pattern
       id="EMFhbasepattern-7"
       patternUnits="userSpaceOnUse"
       width="6"
       height="6"
       x="0"
       y="0" />
    <pattern
       id="EMFhbasepattern-2"
       patternUnits="userSpaceOnUse"
       width="6"
       height="6"
       x="0"
       y="0" />
    <pattern
       id="EMFhbasepattern-98"
       patternUnits="userSpaceOnUse"
       width="6"
       height="6"
       x="0"
       y="0" />
    <pattern
       id="EMFhbasepattern-6"
       patternUnits="userSpaceOnUse"
       width="6"
       height="6"
       x="0"
       y="0" />
    <pattern
       id="EMFhbasepattern-01"
       patternUnits="userSpaceOnUse"
       width="6"
       height="6"
       x="0"
       y="0" />
    <pattern
       id="EMFhbasepattern-07"
       patternUnits="userSpaceOnUse"
       width="6"
       height="6"
       x="0"
       y="0" />
    <pattern
       id="EMFhbasepattern-8"
       patternUnits="userSpaceOnUse"
       width="6"
       height="6"
       x="0"
       y="0" />
    <pattern
       id="EMFhbasepattern-4"
       patternUnits="userSpaceOnUse"
       width="6"
       height="6"
       x="0"
       y="0" />
    <pattern
       id="EMFhbasepattern-40"
       patternUnits="userSpaceOnUse"
       width="6"
       height="6"
       x="0"
       y="0" />
    <pattern
       id="EMFhbasepattern-08"
       patternUnits="userSpaceOnUse"
       width="6"
       height="6"
       x="0"
       y="0" />
    <pattern
       id="EMFhbasepattern-04"
       patternUnits="userSpaceOnUse"
       width="6"
       height="6"
       x="0"
       y="0" />
    <pattern
       id="EMFhbasepattern-014"
       patternUnits="userSpaceOnUse"
       width="6"
       height="6"
       x="0"
       y="0" />
    <pattern
       id="EMFhbasepattern-27"
       patternUnits="userSpaceOnUse"
       width="6"
       height="6"
       x="0"
       y="0" />
    <pattern
       id="EMFhbasepattern-09"
       patternUnits="userSpaceOnUse"
       width="6"
       height="6"
       x="0"
       y="0" />
    <pattern
       id="EMFhbasepattern-5"
       patternUnits="userSpaceOnUse"
       width="6"
       height="6"
       x="0"
       y="0" />
    <pattern
       id="EMFhbasepattern-018"
       patternUnits="userSpaceOnUse"
       width="6"
       height="6"
       x="0"
       y="0" />
  </defs>
  <sodipodi:namedview
     id="base"
     pagecolor="#ffffff"
     bordercolor="#666666"
     borderopacity="1.0"
     inkscape:pageopacity="0.0"
     inkscape:pageshadow="2"
     inkscape:zoom="5.8078148"
     inkscape:cx="42.614995"
     inkscape:cy="42.701086"
     inkscape:document-units="pt"
     inkscape:current-layer="layer1"
     showgrid="false"
     units="pt"
     inkscape:window-width="958"
     inkscape:window-height="1041"
     inkscape:window-x="0"
     inkscape:window-y="0"
     inkscape:window-maximized="0"
     inkscape:pagecheckerboard="true"
     inkscape:showpageshadow="false"
     inkscape:object-paths="true"
     inkscape:snap-intersection-paths="true"
     inkscape:snap-smooth-nodes="true"
     inkscape:snap-midpoints="true"
     showguides="true"
     inkscape:snap-bbox="true"
     inkscape:bbox-nodes="true"
     inkscape:snap-nodes="false"
     inkscape:snap-global="true"
     inkscape:snap-others="false">
    <inkscape:grid
       type="xygrid"
       id="grid1378" />
    <sodipodi:guide
       position="0.97013831,21.607643"
       orientation="78.000048,0"
       id="guide1380"
       inkscape:locked="false" />
    <sodipodi:guide
       position="0.97013831,0.97013129"
       orientation="0,78.000005"
       id="guide1382"
       inkscape:locked="false" />
    <sodipodi:guide
       position="21.607639,0.97013129"
       orientation="-78.000048,0"
       id="guide1384"
       inkscape:locked="false" />
    <sodipodi:guide
       position="21.607639,21.607643"
       orientation="0,-78.000005"
       id="guide1386"
       inkscape:locked="false" />
  </sodipodi:namedview>
  <metadata
     id="metadata828">
    <rdf:RDF>
      <cc:Work
         rdf:about="">
        <dc:format>image/svg+xml</dc:format>
        <dc:type
           rdf:resource="http://purl.org/dc/dcmitype/StillImage" />
      </cc:Work>
    </rdf:RDF>
  </metadata>
  <g
     inkscape:label="Icon"
     inkscape:groupmode="layer"
     id="layer1"
     transform="translate(0,-274.42223)">
    <path
       id="path8832"
       style="color:#000000;display:inline;fill:#000000;stroke-width:1;stroke-linecap:round;stroke-linejoin:round;-inkscape-stroke:none"
       d="m 13.286383,275.39238 c -0.547564,0 -0.999887,0.44972 -0.999884,0.99727 v 0.33157 h -0.331564 c -0.547567,0 -0.997932,0.45296 -0.997932,1.00053 v 0.13718 l -9.1302936,5.27313 c -0.5362669,0.30962 -0.7224364,1.00453 -0.4128251,1.54079 l 0.2678471,0.46418 c 0.091567,0.15941 0.2950155,0.21441 0.4544362,0.12292 l 0.1644803,-0.0949 v 7.24104 c -0.6203045,0.16621 -0.9818255,0.69669 -0.997287,1.29179 -0.1840892,3.6e-4 -0.33292826,0.15007 -0.33220928,0.33416 6.6571e-4,0.18308 0.14913538,0.3312 0.33220928,0.33156 h 0.3315635 v 1.00054 H 1.3033609 c -0.1830739,3.6e-4 -0.33149364,0.14849 -0.33220928,0.33156 -6.6573e-4,0.18408 0.14812008,0.3338 0.33220928,0.33415 H 21.275063 c 0.183837,-7.3e-4 0.332283,-0.15032 0.331563,-0.33415 -6.65e-4,-0.18282 -0.148742,-0.33086 -0.331563,-0.33156 h -0.332209 v -1.00054 h 0.332209 c 0.182821,-7e-4 0.330851,-0.14874 0.331563,-0.33156 6.66e-4,-0.18384 -0.147726,-0.33345 -0.331563,-0.33416 0,-0.64722 -0.447479,-1.11068 -0.934222,-1.27293 -0.21527,-0.0718 -0.442874,-0.0921 -0.663121,-0.0494 -0.06786,-0.14749 -0.166687,-0.2735 -0.284753,-0.36797 -0.226466,-0.18117 -0.506836,-0.26069 -0.781447,-0.26069 -0.274607,0 -0.552374,0.0795 -0.778843,0.26069 -0.118069,0.0945 -0.218205,0.22047 -0.286703,0.36797 -0.219715,-0.0423 -0.447117,-0.0221 -0.661823,0.0494 -0.486743,0.16225 -0.934223,0.62571 -0.934223,1.27293 -0.184851,-7.3e-4 -0.334885,0.1493 -0.334163,0.33416 6.66e-4,0.18383 0.150327,0.33228 0.334163,0.33156 h 0.33221 v 1.00054 h -1.997819 c 1.05e-4,-2.50833 2e-6,-5.15509 0,-7.3249 h 0.665722 v 0.99988 c 0,0.36372 0.302,0.66573 0.665724,0.66573 h 2.663543 c 0.363724,0 0.666376,-0.30201 0.666376,-0.66573 v -0.99988 h 0.665723 v 3.32925 c 6.66e-4,0.18282 0.148739,0.33086 0.331559,0.33156 0.183837,7.4e-4 0.333448,-0.14772 0.334164,-0.33156 v -3.32927 c 0.363728,0 0.665724,-0.30198 0.665724,-0.66571 v -1.66366 c 0,-0.36372 -0.301996,-0.66573 -0.665724,-0.66573 v -5.32514 c 0.363728,0 0.665724,-0.302 0.665724,-0.66571 v -1.66561 c 0,-0.36373 -0.301996,-0.66638 -0.665724,-0.66638 h -1.331446 v -0.33156 c 3e-6,-0.54756 -0.450372,-0.99728 -0.997936,-0.99728 z m 0,0.66571 h 4.661365 c 0.187774,0 0.331563,0.14379 0.33156,0.33156 v 0.33157 h -5.327086 v -0.33157 c -3e-6,-0.18777 0.146387,-0.33156 0.334161,-0.33156 z m 6.990747,1.32951 v 1.66561 h -6.324372 c -0.547564,0 -1.000536,0.45036 -1.000536,0.99793 v 4.66071 c 0,0.54757 0.452972,0.99794 1.000536,0.99794 h 6.324372 v 1.66366 c -2.774688,-7.7e-4 -5.548507,0 -8.322215,0 -0.215454,0 -0.334143,-0.14679 -0.334143,-0.33222 0.0017,-3.10788 0,-6.21642 0,-9.31948 0,-0.2243 0.149631,-0.33415 0.334163,-0.33415 z m -9.320127,1.24237 v 0.76715 l -8.8676457,5.11839 -0.1007668,-0.17488 c -0.1297228,-0.22469 -0.055002,-0.50414 0.1696796,-0.63386 z m 2.995755,1.08895 h 0.331561 v 5.32514 h -0.331561 c -0.187774,0 -0.334163,-0.14444 -0.334163,-0.33221 v -4.66071 c 0,-0.18778 0.146389,-0.33222 0.334163,-0.33222 z m 0.997283,0 h 0.665724 v 5.32514 h -0.665724 z m 1.332097,0 h 3.329269 v 5.32514 h -3.329269 z m -5.325135,0.44793 v 6.87438 c 0,0.29269 0.128877,0.55737 0.332209,0.74048 v 7.58237 H 10.62284 v -4.66136 c -4e-6,-0.36372 -0.301999,-0.66573 -0.6657241,-0.66573 H 7.9592966 c -0.3637246,0 -0.66572,0.30201 -0.6657234,0.66573 v 4.66136 H 6.2962864 v -1.00054 h 0.3315634 c 0.1838329,7.3e-4 0.3334442,-0.14773 0.33416,-0.33156 6.656e-4,-0.18486 -0.1493086,-0.33488 -0.33416,-0.33416 0,-0.64723 -0.4468302,-1.11068 -0.9335738,-1.27293 -0.2148623,-0.0716 -0.4426095,-0.0918 -0.6624713,-0.0494 -0.068503,-0.14749 -0.1679854,-0.2735 -0.2860547,-0.36797 -0.2264658,-0.18117 -0.4756294,-0.26069 -0.7788431,-0.26069 -0.4275209,0 -0.73634,0.19309 -1.0005356,0.50644 v -7.47248 z m 6.369229,1.38281 -0.334161,0.57471 c -0.092,0.15957 -0.03694,0.36352 0.122875,0.45509 0.158908,0.0918 0.362209,0.0377 0.454433,-0.1209 l 0.331563,-0.57731 c 0.092,-0.15873 0.03821,-0.36198 -0.120271,-0.45444 -0.173247,-0.10001 -0.367506,-0.0277 -0.454435,0.12292 z m 0.997287,0.33156 -0.665724,1.15266 c -0.09335,0.16 -0.03812,0.36542 0.122875,0.45704 0.159417,0.0916 0.36288,0.0365 0.454432,-0.12291 l 0.666377,-1.15266 c 0.09156,-0.15942 0.03655,-0.36288 -0.122875,-0.45443 -0.197587,-0.11411 -0.37119,-0.025 -0.455081,0.12027 z m -8.8377387,0.0566 c -1.7930959,1.03452 -3.5861685,2.06899 -5.3791313,3.10368 -0.2919964,0.16859 -0.4739352,0.48328 -0.4739385,0.82046 v 2.84297 c 6.5e-6,0.36373 0.3019986,0.66573 0.6657233,0.66573 h 5.3270885 c 0.3637214,0 0.6657167,-0.302 0.6657237,-0.66573 1e-4,-2.10164 0,-4.20126 0,-6.30227 0,-0.46848 -0.4752369,-0.6555 -0.8054657,-0.46484 z m 0.1397754,0.68588 v 2.08818 H 8.2934564 v -1.31909 z m -1.9978227,1.15331 v 0.93487 H 6.2962864 v -0.16578 z m -1.9978191,1.15396 v 1.77613 H 4.2984671 v -0.84516 c 0,-0.10039 0.052835,-0.19294 0.1397752,-0.24314 z m 0.6663725,0.44729 H 7.627733 v 1.32884 H 6.2962864 Z m 1.99717,0 h 1.3320993 v 1.32884 H 8.2934564 Z m -3.9949893,1.99522 h 1.3314468 v 1.33144 H 4.2984671 Z m 1.9978193,0 H 7.627733 v 1.33144 H 6.2962864 Z m 1.99717,0 h 1.3320993 v 1.33144 H 8.2934564 Z m 3.6614786,0.66571 h 1.66366 v 0.66573 h -1.66366 z m 3.66083,0 h 0.997936 v 0.9999 h -0.997936 z m 1.66366,0 h 0.999883 v 0.9999 h -0.999883 z m -5.32449,1.33146 h 1.66366 v 0.66637 h -1.66366 z m 3.32927,1.00053 c -0.183836,-7.4e-4 -0.333448,0.14773 -0.334164,0.33157 -6.65e-4,0.18484 0.149313,0.33488 0.334164,0.33415 h 3.327315 c 0.184852,7.4e-4 0.334886,-0.14931 0.334164,-0.33415 -6.66e-4,-0.18384 -0.150327,-0.3323 -0.334164,-0.33157 z m -7.3249084,0.33157 h 1.9978193 v 4.66136 H 7.9592966 Z m 3.9956384,0 h 1.66366 v 0.66571 h -1.66366 z m 0,1.33144 h 1.66366 v 0.66637 h -1.66366 z m -7.9880281,0.37837 c 0.1414628,0 0.2778297,0.0473 0.363415,0.11574 0.059955,0.0479 0.1022816,0.0986 0.1222231,0.17879 -0.044864,0.0533 -0.084477,0.11234 -0.117021,0.17748 -0.081215,0.16344 -0.015678,0.3618 0.1469285,0.44468 0.1642572,0.0829 0.3645934,0.0167 0.4472829,-0.14757 0.038558,-0.0771 0.092213,-0.11851 0.1891819,-0.14498 0.096972,-0.0264 0.2329766,-0.0242 0.3640708,0.0195 0.2621818,0.0874 0.4810883,0.29032 0.4810883,0.64167 H 4.2984671 c -0.1838329,7.3e-4 -0.3322792,0.15033 -0.3315602,0.33417 6.657e-4,0.18282 0.1487392,0.33084 0.3315602,0.33156 h 1.3314468 v 1.00053 h -3.329266 v -1.00053 h 0.6657234 c 0.1838328,7.3e-4 0.3334442,-0.14773 0.3341598,-0.33156 6.658e-4,-0.18486 -0.1493084,-0.33489 -0.3341598,-0.33417 H 1.9690844 c 0,-0.35135 0.2169558,-0.55429 0.4791411,-0.64167 0.1310908,-0.0437 0.2664457,-0.0459 0.363415,-0.0195 0.096973,0.0264 0.1532295,0.0678 0.1917883,0.14498 0.082646,0.16284 0.2810683,0.22869 0.4446799,0.14757 0.1638312,-0.0816 0.2309261,-0.28037 0.1501805,-0.44468 -0.032521,-0.065 -0.072588,-0.12417 -0.1176726,-0.17748 0.019938,-0.0801 0.062269,-0.13082 0.122223,-0.17879 0.085586,-0.0684 0.2226014,-0.11574 0.3640673,-0.11574 z m 14.6446131,0 c 0.141463,0 0.277834,0.0473 0.363418,0.11574 0.05995,0.0479 0.102281,0.0986 0.122221,0.17879 -0.04509,0.0533 -0.08449,0.11234 -0.117025,0.17748 -0.08084,0.16413 -0.01405,0.36274 0.149528,0.44468 0.163615,0.0811 0.362037,0.0152 0.444684,-0.14757 0.03856,-0.0771 0.09481,-0.11851 0.191785,-0.14498 0.09697,-0.0264 0.232327,-0.0242 0.363418,0.0195 0.262181,0.0874 0.479138,0.29032 0.479138,0.64167 H 18.94568 c -0.184852,-7.3e-4 -0.334886,0.14931 -0.334164,0.33417 6.66e-4,0.18383 0.150327,0.33228 0.334164,0.33156 h 1.331446 v 1.00053 h -3.329269 v -1.00053 h 0.665724 c 0.182821,-7.1e-4 0.33085,-0.14874 0.331562,-0.33156 6.67e-4,-0.18384 -0.147726,-0.33345 -0.331562,-0.33417 h -0.999884 c 0,-0.35135 0.219556,-0.55429 0.481738,-0.64167 0.131091,-0.0437 0.266445,-0.0459 0.363418,-0.0195 0.09697,0.0264 0.150626,0.0678 0.189186,0.14498 0.08269,0.16435 0.283026,0.23045 0.447283,0.14757 0.163827,-0.0816 0.230922,-0.28037 0.150177,-0.44468 -0.03302,-0.066 -0.07367,-0.12614 -0.119616,-0.18009 0.0202,-0.0786 0.06225,-0.12871 0.121566,-0.17618 0.08559,-0.0684 0.222605,-0.11574 0.364067,-0.11574 z m -9.3201275,0.45508 c -0.1828211,7e-4 -0.3308479,0.14874 -0.3315602,0.33156 v 0.33417 c 6.656e-4,0.18282 0.1487391,0.33084 0.3315602,0.33156 0.1838361,7.3e-4 0.3334475,-0.14772 0.3341632,-0.33156 v -0.33422 c -6.658e-4,-0.18383 -0.1503271,-0.33228 -0.3341632,-0.33156 z m 2.6635425,0.49864 h 1.66366 v 0.66573 h -1.66366 z m 0,1.33145 h 1.66366 v 0.66638 h -1.66366 z"
       sodipodi:nodetypes="sscssccccccccsccccsccsccccscccssscccsccccccsssscccsccssccssscssssssccsscccssccccccccsccccsccssssccccccccccccccccsscccccscccssccccccccccccccccccccscccccccccccscccsccccccccccccccccccccccccccccccccccccccccccccccccsccccccccccccccccccccssccccccccsccccccscccscccccsssccscccccsccccccscccscccccssccsccscccccccccccccc" />
  </g>
</svg>
